<?xml version="1.0" standalone="no"?>
<!DOCTYPE svg PUBLIC "-//W3C//DTD SVG 20010904//EN"
 "http://www.w3.org/TR/2001/REC-SVG-20010904/DTD/svg10.dtd">
<svg version="1.0" xmlns="http://www.w3.org/2000/svg"
 width="640.000000pt" height="640.000000pt" viewBox="0 0 640.000000 640.000000"
 preserveAspectRatio="xMidYMid meet">
<metadata>
Created by potrace 1.11, written by Peter Selinger 2001-2013
</metadata>
<g transform="translate(0.000000,640.000000) scale(0.100000,-0.100000)"
fill="#000000" stroke="none">
<path d="M4340 4069 c-121 -21 -257 -114 -318 -218 -14 -25 -86 -205 -158
-400 -125 -336 -134 -356 -160 -365 -16 -4 -53 -17 -83 -26 l-54 -19 -589 242
-590 242 -17 55 c-48 152 -143 250 -292 300 -81 28 -205 24 -289 -8 -109 -43
-207 -141 -252 -252 -18 -44 -23 -75 -23 -160 0 -100 2 -108 36 -181 107 -224
367 -319 587 -213 29 15 61 24 70 21 14 -4 789 -320 1099 -449 70 -29 72 -30
102 -93 88 -190 317 -273 505 -185 117 56 204 180 215 308 l6 67 320 280 c331
290 372 333 411 439 14 38 19 77 19 156 -1 126 -21 188 -93 283 -104 135 -283
205 -452 176z m205 -140 c77 -29 155 -102 191 -181 40 -88 41 -197 2 -280
-100 -215 -371 -273 -543 -116 -76 69 -107 132 -113 229 -10 165 77 299 228
352 65 23 168 21 235 -4z m-2470 -178 c50 -22 122 -85 148 -130 10 -17 15 -31
12 -31 -3 0 -61 23 -128 52 -104 43 -132 51 -187 52 -161 1 -271 -144 -225
-299 24 -83 68 -122 206 -180 63 -26 118 -51 124 -56 16 -16 -139 -10 -188 7
-64 22 -140 92 -174 162 -64 130 -19 307 98 388 95 65 215 79 314 35z m775
-547 c658 -270 903 -375 925 -396 25 -23 30 -36 30 -73 0 -37 -6 -50 -33 -77
-27 -27 -40 -33 -75 -32 -64 1 -1821 724 -1859 765 -64 68 -17 179 75 179 32
0 252 -86 937 -366z m1197 125 c68 -94 170 -157 294 -183 l62 -12 -148 -130
c-81 -71 -151 -130 -155 -132 -4 -1 -13 11 -20 28 -18 43 -121 135 -174 155
-26 10 -46 21 -46 26 0 4 28 83 62 175 51 135 64 163 73 149 5 -10 29 -44 52
-76z m-161 -404 c131 -77 164 -255 71 -377 -71 -93 -204 -125 -312 -74 -27 12
-56 30 -64 39 -12 16 -10 16 29 2 87 -31 200 -6 257 56 97 106 77 276 -42 358
-50 34 -50 34 -16 27 19 -3 54 -18 77 -31z"/>
<path d="M4325 3821 c-50 -22 -109 -86 -125 -136 -7 -20 -10 -65 -8 -101 3
-50 10 -72 34 -106 59 -85 165 -124 261 -97 70 19 146 97 163 168 28 117 -29
231 -139 277 -47 20 -138 17 -186 -5z m160 -123 c89 -70 46 -201 -66 -201 -36
0 -48 6 -76 36 -37 41 -43 80 -18 127 30 58 110 77 160 38z"/>
</g>
</svg>
